<svg xmlns="http://www.w3.org/2000/svg" width="100%" height="100%" preserveAspectRatio="none" viewBox="0 0 300 300" fill="#000" class=""><path d="M195.1,43.8c-6.9,0.5-13.8-0.2-21.9,1c-0.2-0.3-0.4-0.6-0.7-0.3c-0.2,0.1-0.3,0.2-0.5,0.2c-0.9-0.6-2.2,0-3.2-0.3c-0.2,0.1-0.3,0.2-0.5,0.3c-1.1-0.4-2.4-0.4-3.7,0c-0.5,0.2-0.8-0.1-1.2,0c-1.3-0.4-2.6-0.6-4.2,0.2c-2.2,0.1-4.4,0.1-6.7,0.2c-3.8-0.1-7.5-0.6-11.4-0.5c-2-1.6-4.6-1.3-6.7-2.3c-0.5-0.5-1.1-0.7-2-0.3c-1.5,0.2-5,0.2-5.2,0.7c-0.9,0.5-1.6,0.7-2.2,0.5c0.4,1.1-0.9,1.7-0.5,2.7c-0.2,1.3-1.3,3.6,0.2,4.2c0.2,0.3,0.4,0.6,0.7,0.2c0.9,1.5,0.2,2.6,1.5,4.2c2,1.4,4.1,2.5,6.5,3c0.9,1.1,1.9,1.6,3.5,3.2c0.7,0.7,1.3,1.9,2.2,2c0.2,0.3,0.3,0.7,0.5,1c0.5,0.9,1.2,1.5,2,1.5c1.6,1.2,2.6,3.9,4.5,4c3.2,4.8,6.6,8.1,9.2,13.5c-1.3,1.4,0.4,3.7-1.3,5c-0.3,2.4-3.2,2.6-4.2,4c-2.7,1.9-5.6,3.7-7.7,5.7c-0.5,0.2-1,0.5-1.5,0.7c-0.6,1.4-4.1,1.9-4.5,3.5c-5.2,3.8-11.7,7.6-18.7,12.4c-2.2,1.3-4.5,2.7-6,4.2c-4.2,2.3-6.3,4-10,6.2c0.1,0.2,0.2,0.3,0.2,0.5c-1.2,0.6-2.3,1.2-3.5,1.7c-17.4,11.5-34.7,25.5-52.8,37.5c0.1,0.2,0.2,0.3,0.2,0.5c-0.5,0.2-1,0.5-1.5,0.7c-2.5,1.6-4.4,3.5-7.5,5c0.1,0.2,0.2,0.3,0.3,0.5c-0.7,0.7-3.2,0.9-2.7,2c-4.4,1.8-7.8,5.9-11,6.7c-0.4,1.2-2.7,1.9-4.2,2.7c-0.3-1.5-1.5-0.5-2-1.5c-2.8,1.7-3.1,3.5-6.2,3.7c1.7,1.3,0.3,1.4,1,3.2c-0.2,0.1-0.3,0.2-0.5,0.2c0.2,0.6-0.5,0.9-1.2,1.2c0.8,2.3,1.2,2.9,1.5,4.2c1.4,2.6,2.9,4.5,5,5c-0.2,2.1,3.3,2,4,5.5c0.1,1,1.4,1.6,2.5,3.7c-0.6,1.9,1.7,2.2,2.2,4.5c0.1,0.2,0.2,0.3,0.3,0.5c0.1,0.2,0.2,0.3,0.3,0.5c1.2,1.5,1.9,3,3.7,5c1.9,4,2.5,4.5,4.7,7c0.5,0.7,0.7,1.9,1.5,1.7c0.3,0.7,0.7,1.3,1,2c0.3,0.3,0.5,1,1,0.7c0.1,0.2,0.2,0.3,0.2,0.5c0.3,0.3,0.5,1,1,0.7c0.2,0.3,0.3,0.7,0.5,1c0,2,2.9,3,3.2,4c1.2,1.5,1.4,3.4,3.5,4.5c0.2,0.5,0.5,1,0.7,1.5c-0.7,1.8,1.6,0.5,2,2.7c0.1,0.2,0.2,0.3,0.3,0.5c0.2,0.5,0.5,1,0.7,1.5c1.4,2.2,1.7,3.2,3.5,5.7c0.3,0.7,0.8,1,1.2,1.3c-0.4,1,0.6,2.4,1.2,3.7c0.3,1,1.1,0.8,1.5,1.7c1.9,3.7,5,7.8,7.9,8.5c0.2,0.3,0.3,0.7,0.5,1c0.1,0.2,0.2,0.3,0.2,0.5c2.8,0.9,5.5-0.8,7.2,0.8c3.6-2.7,6.1-4,8.7-7.4c0.3-0.3,1-0.5,0.7-1c1.8-0.8,3.1-1.7,3.5-3c0.8-0.4,1.7-0.8,2.5-1.2c4.3-3.8,8-7.8,13-11.4c-0.1-0.2-0.2-0.3-0.2-0.5c0.3-0.2,0.7-0.3,1-0.5c10.2-9.6,23.8-19.2,31.9-28.3c1.7-0.4,1.6-1.4,2.7-2c4.4-3.6,8.5-8.8,14.7-12.9c-0.1-1.1,2.8-1.3,2.5-2.5c0.2-0.1,0.3-0.2,0.5-0.2c0.5-0.2,0.4-0.7,0.7-1c3.3-2.2,5.5-4.8,9-7c0.3-0.2,0.6-0.4,0.2-0.7c11.9-10.1,25.1-20.6,34.4-28.3c1.5-1.3,2.4-0.5,3.5-0.5c2.2,3.3,2.6,5.2,6.7,8.5c-0.5,0.5-0.9,1.1-1,1.7c0.6,5.6,5.2,8.9,9.2,8.5c-0.3-0.7-0.8-1-1.2-1.2c0.5-0.2,0.8,0.1,1.2,0c0.1,0.2,0.2,0.3,0.2,0.5c4-1.8,3.5-5.2,4-8.2c1.6-2.8,2.4-5.8,3.8-8.7c2.3-1.5,1.7-3.9,2.7-5.7c0.3-0.2,0.6-0.4,0.3-0.8c0.3-0.2,0.6-0.4,0.3-0.7c2.1-2.2,2.6-4.9,3.7-7.5c0.9-0.4,1.1-1,1-1.7c3.3-6.8,6.5-13.6,9.7-20.4c-0.1-0.2-0.2-0.3-0.2-0.5c1.7-0.8,1.6-2.2,2-3.5c0.2-1.5,1.6-2.5,1.7-4c0.5-0.5,0.9-1.1,1-1.7c1.5-2.3,2-4.9,3.2-7.2c0.3-0.2,0.7-0.3,1-0.5c-0.8-1.9,1.9-2.7,1.5-4.5c1.3-0.7-0.3-2.3,1-3c1.9-0.7,0.3-2.7,2.7-3.2c-1.4-1.3,0.2-1.6,0-2.5c2.2-3.1,2.5-6.9,5-9.9c0.7-1.1,1.2-2.4,1.3-3.7c1.5-3.2,3.1-6.4,4.5-9.7c0.5-0.4,0.5-0.9,0.5-1.5c1.5-1.9,2.1-4,3.2-6c0.4-1.5,2.3-2.5,2.3-4.2c0.9-2.3,2-3.4,2.5-5c1.2-1,1.2-2.4,2-3.5c2-2.7,2.4-5.4,5.7-6c-1-1.4,0.3-2.1,1.7-2.7c1.9-0.3,5.3-3.8,3.5-6.7c-0.2,0.1-0.3,0.2-0.5,0.2c-0.1-0.2-0.2-0.3-0.2-0.5c1.6-1.6-1.9-4.6-3.7-3.7c-0.6,0.2-0.9-0.5-1.2-1.2c-0.7,0.3-1.3,0.7-2,1c-0.4-1.2-1.1-1.8-2-1.5c-6.3,3.4-12.3,4.4-18.7,4.9c-0.9-0.6-2.4,0.5-3.5,0.5c-6.4,0.9-13,2.6-19.2,2.7c-1-0.6-2.8,0.9-4,0.7c-3.9,0.9-7.3,0.3-11.5,2c-0.2-0.3-0.4-0.6-0.7-0.3c-0.7,0.4-1.2,0.3-1.7,0.2c-0.9-0.6-2.4,0.5-3.5,0.5c-5.4,0.8-10.6,1.1-15.9,1.7C199,43,197,43.5,195.1,43.8z M218.8,50c0.9-0.5,1.4,0.1,2.2-0.5c0.2-0.1,0.3-0.2,0.5-0.2c0.8,0.5,1.8,0.4,3-0.2c15-1.3,30.8-5.4,45.3-5.1c0.7,1.5-0.8,2.2-0.7,3.5c-0.5,0.4-0.5,0.9-0.5,1.5c-0.2,0.6-1.2,1-1,1.7c-3.6,5.6-5.5,11.7-8.7,17.4c-0.5,0.1-0.4,0.4-0.3,0.7c-9.1,20-18.3,40-27.2,60.2c-0.9,0.4-1.1,1-1,1.7c-2.2,2.2-1.7,5.2-3.8,7.5c-0.6,0.6-0.8,1.4-0.8,2.2c-4.2,6.6-6.7,16-11.2,21.1c0.3-1-0.4-1.7-1.5-1.7c-0.6-1.5-1.9-3.1-1.5-4.2c1-1.2-0.8-3.3,0.3-4.5c-0.4-0.3-0.9-0.7-1.5-0.5c-5.5-6-15.7-2.8-17.7,4.4c-0.6,0.6-2.9,0.7-2.2,1.7c-6.5,5.2-12.8,10.3-19.2,16.4c-0.7,0.3-1.4,0.6-1.2,1.2c-6.1,4.3-10.9,9.1-16.2,13.7c-0.2,0.1-0.3,0.2-0.5,0.2c-1.9,0.8-1.9,2.1-3.5,3c-0.7,1-2,1.8-3,2.7c-2.9,1.8-4.7,4-7,6c-0.8,0.4-2,0.7-1.7,1.5c-5.6,5.5-12.7,10.4-18.2,15.9c-1.2,0.4-1.9,1-2.2,1.7c-8.5,7.7-17.7,14.6-26.4,23.1c-0.8,0.4-2,0.7-1.7,1.5c-1.6,0.3-0.9,1.3-2.2,1.7c-1.3,0.5-1.2,1.6-2,2.2c-3.7,2.1-7.8,5.7-9.5,7.2c-0.2,0.1-0.3,0.2-0.5,0.2c-0.7,0.3-1.5,0.6-1.2,1.2c-0.9,0.1-1.6-0.1-2.5,0c-0.7,0.3-1.3,0.7-2,1c-0.2,0.1-0.3,0.2-0.5,0.2c-0.4-0.6-0.7-1.1-1.5-0.5c-6-6.7-9.6-15.9-15.6-22.7c-0.1-0.2-0.2-0.3-0.2-0.5c-3.3-4.2-6.7-7.9-9.9-12.5c-0.9-2.2-2.4-2.8-3.5-4.5c-3.1-5.7-6.5-10.2-9.4-16.4c-0.2-0.3-0.3-0.7-0.5-1c-1.6-1.7-1.4-4.9-1.7-4.7c-1.6-0.7-0.1-0.6-0.2-1.7c0.6-1.9,1.1-3.8,3-5.2c7.4-6.6,18.4-13,25.7-19.6c0.2-0.1,0.3-0.2,0.5-0.2c8.3-5.9,17.2-11.9,26.9-19.6c-0.5,0.5-2.4-0.6-1.2-1.2c0.7,1.7,4.5,0.4,5-1.2c0.2-0.1,0.3-0.2,0.5-0.3c8-5.5,14.6-10.7,22.4-14.9c-0.1-0.2-0.2-0.3-0.3-0.5c1.3-0.5,2.4-1.1,2.7-2c14.2-9.3,23.5-15.5,36.9-24.6c0.8-0.4,2-0.7,1.7-1.5c3.5-2.7,6-3.8,10.2-5.7c1.6-1.1,0-1.7,2.2-1.7c0.6,0.4,1.2,1.6,3.2,0.3c3.8-2.1,3.7-5.4,5.3-8.2c-1.4-1.8-1.1-4.1-2.2-4.5c-1.3-1-1.8-1-2-2.7c-3.7-1.1-6.3-5.1-8.9-9.2c-2.1-1.3-3.3-5.1-5.7-5.2c-0.2-0.3-0.3-0.7-0.5-1c-2.2-2.8-8.7-5.3-7.7-9.2c0.2-0.1,0.3-0.2,0.5-0.3c1.8-0.8,2.9,0.3,4.7-0.5c0.2-0.1,0.3-0.2,0.5-0.3c0.9-0.1,1.6,0.1,2.5,0c0.2-0.1,0.3-0.2,0.5-0.2c0.5,0.9,1.8-0.5,2.5,0c0.7-0.4,1.2-0.3,1.7-0.3c4,0.9,8.5,0.4,12.9-0.2c8.9-0.8,15.6,0.1,24.1-1.4c0.9,0.7,2.2,0,3.2,0.3c4.2-0.2,8.4-0.3,12.7-0.7c1.7,0.2,3.6,0.1,5.7-1C216.6,50.8,217.7,50.2,218.8,50z"></path></svg>